<?xml version="1.0" encoding="UTF-8" standalone="no"?>
<svg
   xmlns:dc="http://purl.org/dc/elements/1.1/"
   xmlns:cc="http://creativecommons.org/ns#"
   xmlns:rdf="http://www.w3.org/1999/02/22-rdf-syntax-ns#"
   xmlns:svg="http://www.w3.org/2000/svg"
   xmlns="http://www.w3.org/2000/svg"
   xmlns:sodipodi="http://sodipodi.sourceforge.net/DTD/sodipodi-0.dtd"
   xmlns:inkscape="http://www.inkscape.org/namespaces/inkscape"
   inkscape:version="1.0 (4035a4fb49, 2020-05-01)"
   sodipodi:docname="afgerond.svg"
   id="svg5751"
   version="1.1"
   viewBox="0 0 26.667 40"
   height="40"
   width="26.667">
  <metadata
     id="metadata5755">
    <rdf:RDF>
      <cc:Work
         rdf:about="">
        <dc:format>image/svg+xml</dc:format>
        <dc:type
           rdf:resource="http://purl.org/dc/dcmitype/StillImage" />
      </cc:Work>
    </rdf:RDF>
  </metadata>
  <sodipodi:namedview
     inkscape:current-layer="svg5751"
     inkscape:window-maximized="1"
     inkscape:window-y="-8"
     inkscape:window-x="1912"
     inkscape:cy="20"
     inkscape:cx="13.3335"
     inkscape:zoom="21.25"
     showgrid="false"
     id="namedview5753"
     inkscape:window-height="1017"
     inkscape:window-width="1920"
     inkscape:pageshadow="2"
     inkscape:pageopacity="0"
     guidetolerance="10"
     gridtolerance="10"
     objecttolerance="10"
     borderopacity="1"
     bordercolor="#666666"
     pagecolor="#ffffff" />
  <defs
     id="defs5741">
    <style
       id="style5739">.a{fill:#fff;}.b,.d{fill:#70a326;}.c,.d{stroke:none;}</style>
  </defs>
  <g
     id="g5747"
     transform="translate(0 0)"
     class="a">
    <path
       id="path5743"
       d="M 13.33336639404297 38.21393966674805 C 12.14045143127441 36.42692565917969 9.821548461914062 32.87455368041992 7.525362014770508 28.91543769836426 C 2.132091999053955 19.61631774902344 1.000002026557922 15.30912780761719 1.000002026557922 13.33332824707031 C 1.000002026557922 10.03897762298584 2.282891988754272 6.941808223724365 4.612351894378662 4.612348079681396 C 6.941812038421631 2.282888174057007 10.03898239135742 0.9999980926513672 13.33333206176758 0.9999980926513672 C 16.62768173217773 0.9999980926513672 19.72485160827637 2.282888174057007 22.05431175231934 4.612348079681396 C 24.3837718963623 6.941808223724365 25.66666221618652 10.03897762298584 25.66666221618652 13.33332824707031 C 25.66666221618652 15.31016826629639 24.53348159790039 19.62009811401367 19.13500213623047 28.92630767822266 C 16.83980751037598 32.88290023803711 14.52487850189209 36.42911148071289 13.33336639404297 38.21393966674805 Z"
       class="c" />
    <path
       style="fill:#70a326;fill-opacity:1"
       id="path5745"
       d="M 13.33333206176758 1.999996185302734 C 10.30609130859375 1.999996185302734 7.460042953491211 3.178867340087891 5.319452285766602 5.3194580078125 C 3.178871154785156 7.460037231445312 2.000001907348633 10.30608749389648 2.000001907348633 13.33332824707031 C 2.000001907348633 14.84952735900879 2.829402923583984 18.82344818115234 8.384122848510742 28.40290832519531 C 10.21505355834961 31.56047058105469 12.06180095672607 34.45955657958984 13.333420753479 36.40081024169922 C 14.60139751434326 34.46519088745117 16.44163131713867 31.57638168334961 18.2700023651123 28.42452812194824 C 23.83563232421875 18.83016777038574 24.66666221618652 14.8512077331543 24.66666221618652 13.33332824707031 C 24.66666221618652 10.30608749389648 23.48779296875 7.460037231445312 21.34721183776855 5.3194580078125 C 19.20662307739258 3.178867340087891 16.36057281494141 1.999996185302734 13.33333206176758 1.999996185302734 M 13.33333206176758 -3.814697265625e-06 C 20.6971321105957 -3.814697265625e-06 26.66666221618652 5.969539642333984 26.66666221618652 13.33332824707031 C 26.66666221618652 20.69712829589844 13.33333206176758 40 13.33333206176758 40 C 13.33333206176758 40 1.9073486328125e-06 20.69712829589844 1.9073486328125e-06 13.33332824707031 C 1.9073486328125e-06 5.969539642333984 5.969532012939453 -3.814697265625e-06 13.33333206176758 -3.814697265625e-06 Z"
       class="d" />
  </g>
  <path
     style="fill:#70a326;fill-opacity:1"
     id="path5749"
     transform="translate(5.834 7.502)"
     d="M14.791,5.119l-1.16-1.16a.7.7,0,0,0-.993,0L5.622,10.975,2.359,7.709a.7.7,0,0,0-.993,0L.2,8.872a.7.7,0,0,0,0,1l4.921,4.924a.7.7,0,0,0,.993,0l8.671-8.676A.706.706,0,0,0,14.791,5.119Zm-9.5,3.105a.465.465,0,0,0,.662,0l6.093-6.1a.47.47,0,0,0,0-.662L10.722.137a.465.465,0,0,0-.662,0L5.622,4.574,4,2.949a.465.465,0,0,0-.662,0L2.01,4.276a.47.47,0,0,0,0,.662Z"
     class="b" />
</svg>
