<?xml version="1.0" encoding="UTF-8" standalone="no"?>
<svg
   xmlns:dc="http://purl.org/dc/elements/1.1/"
   xmlns:cc="http://creativecommons.org/ns#"
   xmlns:rdf="http://www.w3.org/1999/02/22-rdf-syntax-ns#"
   xmlns:svg="http://www.w3.org/2000/svg"
   xmlns="http://www.w3.org/2000/svg"
   xmlns:sodipodi="http://sodipodi.sourceforge.net/DTD/sodipodi-0.dtd"
   xmlns:inkscape="http://www.inkscape.org/namespaces/inkscape"
   inkscape:version="1.0 (4035a4fb49, 2020-05-01)"
   sodipodi:docname="doorgestuurd.svg"
   id="svg5154"
   version="1.1"
   viewBox="0 0 26.667 40"
   height="40"
   width="26.667">
  <metadata
     id="metadata5158">
    <rdf:RDF>
      <cc:Work
         rdf:about="">
        <dc:format>image/svg+xml</dc:format>
        <dc:type
           rdf:resource="http://purl.org/dc/dcmitype/StillImage" />
      </cc:Work>
    </rdf:RDF>
  </metadata>
  <sodipodi:namedview
     inkscape:current-layer="svg5154"
     inkscape:window-maximized="1"
     inkscape:window-y="-8"
     inkscape:window-x="1912"
     inkscape:cy="20"
     inkscape:cx="13.3335"
     inkscape:zoom="21.25"
     showgrid="false"
     id="namedview5156"
     inkscape:window-height="1017"
     inkscape:window-width="1920"
     inkscape:pageshadow="2"
     inkscape:pageopacity="0"
     guidetolerance="10"
     gridtolerance="10"
     objecttolerance="10"
     borderopacity="1"
     bordercolor="#666666"
     pagecolor="#ffffff" />
  <defs
     id="defs5144">
    <style
       id="style5142">.a{fill:#fff;}.b,.d{fill:#e17020;}.c,.d{stroke:none;}</style>
  </defs>
  <g
     id="g5150"
     class="a">
    <path
       id="path5146"
       d="M 13.33336734771729 38.21394348144531 C 12.14045238494873 36.42692947387695 9.821549415588379 32.87455368041992 7.525362968444824 28.91543960571289 C 2.132092952728271 19.61631965637207 1.000002980232239 15.30912971496582 1.000002980232239 13.33333015441895 C 1.000002980232239 10.03897953033447 2.282892942428589 6.941810131072998 4.612352848052979 4.612349987030029 C 6.941812992095947 2.28289008140564 10.03898334503174 1 13.33333301544189 1 C 16.62768363952637 1 19.724853515625 2.28289008140564 22.05431365966797 4.612349987030029 C 24.38377380371094 6.941810131072998 25.66666221618652 10.03897953033447 25.66666221618652 13.33333015441895 C 25.66666221618652 15.31017017364502 24.53348350524902 19.6201000213623 19.13500213623047 28.92630958557129 C 16.83980941772461 32.88290023803711 14.52487945556641 36.42911148071289 13.33336734771729 38.21394348144531 Z"
       class="c" />
    <path
       style="fill:#e17020;fill-opacity:1"
       id="path5148"
       d="M 13.33333301544189 2 C 10.30609321594238 2 7.460042953491211 3.178871154785156 5.319452285766602 5.319461822509766 C 3.178873062133789 7.460041046142578 2.000003814697266 10.30608940124512 2.000003814697266 13.33333015441895 C 2.000003814697266 14.84952926635742 2.829402923583984 18.82345008850098 8.384122848510742 28.40291023254395 C 10.21505546569824 31.56047058105469 12.06180191040039 34.45956039428711 13.33342170715332 36.40081024169922 C 14.60139846801758 34.46519470214844 16.44163131713867 31.57638359069824 18.27000427246094 28.42453002929688 C 23.83563232421875 18.83016967773438 24.66666221618652 14.85120964050293 24.66666221618652 13.33333015441895 C 24.66666221618652 10.30608940124512 23.48779296875 7.460041046142578 21.34720230102539 5.319461822509766 C 19.20662307739258 3.178871154785156 16.36057281494141 2 13.33333301544189 2 M 13.33333301544189 0 C 20.69712257385254 0 26.66666221618652 5.969539642333984 26.66666221618652 13.33333015441895 C 26.66666221618652 20.69713020324707 13.33333301544189 40 13.33333301544189 40 C 13.33333301544189 40 3.814697265625e-06 20.69713020324707 3.814697265625e-06 13.33333015441895 C 3.814697265625e-06 5.969539642333984 5.969533920288086 0 13.33333301544189 0 Z"
       class="d" />
  </g>
  <path
     style="fill:#e17020;fill-opacity:1"
     id="path5152"
     transform="translate(5.833 4.853)"
     d="M6.543,3.652l.763-.763a.821.821,0,0,1,1.164,0l6.677,6.674a.821.821,0,0,1,0,1.164L8.47,17.405a.821.821,0,0,1-1.164,0l-.763-.763a.825.825,0,0,1,.014-1.178L10.7,11.521H.824A.822.822,0,0,1,0,10.7V9.6a.822.822,0,0,1,.824-.824H10.7L6.557,4.83A.819.819,0,0,1,6.543,3.652Z"
     class="b" />
</svg>
