<?xml version="1.0" encoding="UTF-8"?>
<svg
    height="258"
    width="250"
    xmlns="http://www.w3.org/2000/svg"
>
  <g aria-label="blauwe pin met een uitroepteken" id="legend-item-nieuw" role="img" transform="translate(3 5)">
    <g>
      <path
        d="M13.33 2c-3.03 0-5.87 1.18-8.01 3.32C3.18 7.46 2 10.31 2 13.33c0 1.52 0.83 5.49 6.38 15.07 1.83 3.16 3.68 6.06 4.95 8 1.27-1.94 3.11-4.82 4.94-7.98 5.57-9.59 6.40-13.57 6.40-15.09 0-3.03-1.18-5.87-3.32-8.01C19.21 3.18 16.36 2 13.33 2zm0-2C20.70 0 26.67 5.97 26.67 13.33 26.67 20.70 13.33 40 13.33 40S0 20.70 0 13.33C0 5.97 5.97 0 13.33 0z"
        fill="#008dc9"
      />
      <path
        d="M5.81 12.66A2.34 2.34 0 1 1 3.47 10.31 2.35 2.35 0 0 1 5.81 12.66zM1.4 0.74 1.8 8.71a.7.7 0 0 0 .7.67h1.94a.7.7 0 0 0 .7-.67l.4-7.97A.7.7 0 0 0 4.84 0H2.1a.7.7 0 0 0-.7.74z"
        fill="#008dc9"
        transform="translate(9.5 7.5)"
      />
    </g>
    <!-- text -->
    <text fill="#1a1a1a" font-family="arial" font-size="16" x="35" y="25">Nieuwe melding</text>
  </g>
  <g aria-label="oranje pin met een vraagteken" id="legend-item-onderzoek" role="img" transform="translate(3 47)">
    <!-- icoon -->
    <g>
      <path
        d="M 13.33333206176758 1.999996185302734 C 10.30609130859375 1.999996185302734 7.460042953491211 3.178867340087891 5.319452285766602 5.3194580078125 C 3.178871154785156 7.460037231445312 2.000001907348633 10.30608749389648 2.000001907348633 13.33332824707031 C 2.000001907348633 14.84952735900879 2.829402923583984 18.82344818115234 8.384122848510742 28.40290832519531 C 10.21505355834961 31.56047058105469 12.06180095672607 34.45955657958984 13.333420753479 36.40081024169922 C 14.60139751434326 34.46519088745117 16.44163131713867 31.57638168334961 18.2700023651123 28.42452812194824 C 23.83563232421875 18.83016777038574 24.66666221618652 14.8512077331543 24.66666221618652 13.33332824707031 C 24.66666221618652 10.30608749389648 23.48779296875 7.460037231445312 21.34721183776855 5.3194580078125 C 19.20662307739258 3.178867340087891 16.36057281494141 1.999996185302734 13.33333206176758 1.999996185302734 M 13.33333206176758 -3.814697265625e-06 C 20.6971321105957 -3.814697265625e-06 26.66666221618652 5.969539642333984 26.66666221618652 13.33332824707031 C 26.66666221618652 20.69712829589844 13.33333206176758 40 13.33333206176758 40 C 13.33333206176758 40 1.9073486328125e-06 20.69712829589844 1.9073486328125e-06 13.33332824707031 C 1.9073486328125e-06 5.969539642333984 5.969532012939453 -3.814697265625e-06 13.33333206176758 -3.814697265625e-06 Z"
        fill=" #e17020"
        />
      <path
        d="M6.968,0A5.676,5.676,0,0,0,1.926,2.667a.7.7,0,0,0,.152.963l1.264.958a.7.7,0,0,0,.974-.122A2.842,2.842,0,0,1,6.741,3.018c.9,0,2.016.58,2.016,1.454,0,.661-.545,1-1.435,1.5C6.283,6.553,4.91,7.277,4.91,9.088v.287a.7.7,0,0,0,.7.7H7.736a.7.7,0,0,0,.7-.7V9.206C8.44,7.95,12.11,7.9,12.11,4.5,12.11,1.941,9.455,0,6.968,0ZM6.675,10.941A2.029,2.029,0,1,0,8.7,12.971,2.032,2.032,0,0,0,6.675,10.941Z"
        fill=" #e17020"
        transform="translate(6.5 7.5)" />
    </g>
    <!-- text -->
    <text fill="#1a1a1a" font-family="sans-serif" font-size="16" x="35" y="25">Melding in onderzoek</text>
  </g>
  <g aria-label="oranje pin met een pijl naar rechts" id="legend-item-doorgestuurd" role="img" transform="translate(3 89)">
    <!-- icoon -->
    <g>
      <path
        d="M 13.33333206176758 1.999996185302734 C 10.30609130859375 1.999996185302734 7.460042953491211 3.178867340087891 5.319452285766602 5.3194580078125 C 3.178871154785156 7.460037231445312 2.000001907348633 10.30608749389648 2.000001907348633 13.33332824707031 C 2.000001907348633 14.84952735900879 2.829402923583984 18.82344818115234 8.384122848510742 28.40290832519531 C 10.21505355834961 31.56047058105469 12.06180095672607 34.45955657958984 13.333420753479 36.40081024169922 C 14.60139751434326 34.46519088745117 16.44163131713867 31.57638168334961 18.2700023651123 28.42452812194824 C 23.83563232421875 18.83016777038574 24.66666221618652 14.8512077331543 24.66666221618652 13.33332824707031 C 24.66666221618652 10.30608749389648 23.48779296875 7.460037231445312 21.34721183776855 5.3194580078125 C 19.20662307739258 3.178867340087891 16.36057281494141 1.999996185302734 13.33333206176758 1.999996185302734 M 13.33333206176758 -3.814697265625e-06 C 20.6971321105957 -3.814697265625e-06 26.66666221618652 5.969539642333984 26.66666221618652 13.33332824707031 C 26.66666221618652 20.69712829589844 13.33333206176758 40 13.33333206176758 40 C 13.33333206176758 40 1.9073486328125e-06 20.69712829589844 1.9073486328125e-06 13.33332824707031 C 1.9073486328125e-06 5.969539642333984 5.969532012939453 -3.814697265625e-06 13.33333206176758 -3.814697265625e-06 Z"
        fill="#e17020"/>
      <path
        d="M6.543,3.652l.763-.763a.821.821,0,0,1,1.164,0l6.677,6.674a.821.821,0,0,1,0,1.164L8.47,17.405a.821.821,0,0,1-1.164,0l-.763-.763a.825.825,0,0,1,.014-1.178L10.7,11.521H.824A.822.822,0,0,1,0,10.7V9.6a.822.822,0,0,1,.824-.824H10.7L6.557,4.83A.819.819,0,0,1,6.543,3.652Z"
        fill="#e17020"
        transform="translate(5.5 5)"
      />
    </g>
    <!-- text -->
    <text fill="#1a1a1a" font-family="sans-serif" font-size="16" x="35" y="25">Melding doorgestuurd</text>
  </g>
  <g aria-label="oranje pin met een vinkje" id="legend-item-ingepland" role="img" transform="translate(3 131)">
    <!-- icoon -->
    <g>
      <path
        d="M 13.33333206176758 1.999996185302734 C 10.30609130859375 1.999996185302734 7.460042953491211 3.178867340087891 5.319452285766602 5.3194580078125 C 3.178871154785156 7.460037231445312 2.000001907348633 10.30608749389648 2.000001907348633 13.33332824707031 C 2.000001907348633 14.84952735900879 2.829402923583984 18.82344818115234 8.384122848510742 28.40290832519531 C 10.21505355834961 31.56047058105469 12.06180095672607 34.45955657958984 13.333420753479 36.40081024169922 C 14.60139751434326 34.46519088745117 16.44163131713867 31.57638168334961 18.2700023651123 28.42452812194824 C 23.83563232421875 18.83016777038574 24.66666221618652 14.8512077331543 24.66666221618652 13.33332824707031 C 24.66666221618652 10.30608749389648 23.48779296875 7.460037231445312 21.34721183776855 5.3194580078125 C 19.20662307739258 3.178867340087891 16.36057281494141 1.999996185302734 13.33333206176758 1.999996185302734 M 13.33333206176758 -3.814697265625e-06 C 20.6971321105957 -3.814697265625e-06 26.66666221618652 5.969539642333984 26.66666221618652 13.33332824707031 C 26.66666221618652 20.69712829589844 13.33333206176758 40 13.33333206176758 40 C 13.33333206176758 40 1.9073486328125e-06 20.69712829589844 1.9073486328125e-06 13.33332824707031 C 1.9073486328125e-06 5.969539642333984 5.969532012939453 -3.814697265625e-06 13.33333206176758 -3.814697265625e-06 Z"
        fill="#e17020"/>
      <path
        d="M5.095,15.543.22,10.668a.75.75,0,0,1,0-1.061L1.28,8.547a.75.75,0,0,1,1.061,0l3.284,3.284L12.659,4.8a.75.75,0,0,1,1.061,0L14.78,5.858a.75.75,0,0,1,0,1.061L6.155,15.543A.75.75,0,0,1,5.095,15.543Z"
        fill="#e17020"
        transform="translate(6 5.5)"/>
    </g>
    <!-- text -->
    <text fill="#1a1a1a" font-family="sans-serif" font-size="16" x="35" y="25">Goedgekeurd en ingepland</text>
  </g>
  <g aria-label="groene pin met 2 vinkjes" id="legend-item-afgerond" role="img" transform="translate(3 173)">
    <!-- icoon -->
    <g>
      <path
        d="M 13.33333206176758 1.999996185302734 C 10.30609130859375 1.999996185302734 7.460042953491211 3.178867340087891 5.319452285766602 5.3194580078125 C 3.178871154785156 7.460037231445312 2.000001907348633 10.30608749389648 2.000001907348633 13.33332824707031 C 2.000001907348633 14.84952735900879 2.829402923583984 18.82344818115234 8.384122848510742 28.40290832519531 C 10.21505355834961 31.56047058105469 12.06180095672607 34.45955657958984 13.333420753479 36.40081024169922 C 14.60139751434326 34.46519088745117 16.44163131713867 31.57638168334961 18.2700023651123 28.42452812194824 C 23.83563232421875 18.83016777038574 24.66666221618652 14.8512077331543 24.66666221618652 13.33332824707031 C 24.66666221618652 10.30608749389648 23.48779296875 7.460037231445312 21.34721183776855 5.3194580078125 C 19.20662307739258 3.178867340087891 16.36057281494141 1.999996185302734 13.33333206176758 1.999996185302734 M 13.33333206176758 -3.814697265625e-06 C 20.6971321105957 -3.814697265625e-06 26.66666221618652 5.969539642333984 26.66666221618652 13.33332824707031 C 26.66666221618652 20.69712829589844 13.33333206176758 40 13.33333206176758 40 C 13.33333206176758 40 1.9073486328125e-06 20.69712829589844 1.9073486328125e-06 13.33332824707031 C 1.9073486328125e-06 5.969539642333984 5.969532012939453 -3.814697265625e-06 13.33333206176758 -3.814697265625e-06 Z"
        fill="#70a326"/>
      <path
        d="M14.791,5.119l-1.16-1.16a.7.7,0,0,0-.993,0L5.622,10.975,2.359,7.709a.7.7,0,0,0-.993,0L.2,8.872a.7.7,0,0,0,0,1l4.921,4.924a.7.7,0,0,0,.993,0l8.671-8.676A.706.706,0,0,0,14.791,5.119Zm-9.5,3.105a.465.465,0,0,0,.662,0l6.093-6.1a.47.47,0,0,0,0-.662L10.722.137a.465.465,0,0,0-.662,0L5.622,4.574,4,2.949a.465.465,0,0,0-.662,0L2.01,4.276a.47.47,0,0,0,0,.662Z"
        fill="#70a326"
        transform="translate(6 7.5)"/>
    </g>
    <!-- text -->
    <text fill="#1a1a1a" font-family="sans-serif" font-size="16" x="35" y="25">Afgerond met aanpassing</text>
  </g>
  <g aria-label="groene pin met een kruis" id="legend-item-afgewezen" role="img" transform="translate(3 215)">
    <!-- icoon -->
    <g>
      <path
        d="M 13.33333206176758 1.999996185302734 C 10.30609130859375 1.999996185302734 7.460042953491211 3.178867340087891 5.319452285766602 5.3194580078125 C 3.178871154785156 7.460037231445312 2.000001907348633 10.30608749389648 2.000001907348633 13.33332824707031 C 2.000001907348633 14.84952735900879 2.829402923583984 18.82344818115234 8.384122848510742 28.40290832519531 C 10.21505355834961 31.56047058105469 12.06180095672607 34.45955657958984 13.333420753479 36.40081024169922 C 14.60139751434326 34.46519088745117 16.44163131713867 31.57638168334961 18.2700023651123 28.42452812194824 C 23.83563232421875 18.83016777038574 24.66666221618652 14.8512077331543 24.66666221618652 13.33332824707031 C 24.66666221618652 10.30608749389648 23.48779296875 7.460037231445312 21.34721183776855 5.3194580078125 C 19.20662307739258 3.178867340087891 16.36057281494141 1.999996185302734 13.33333206176758 1.999996185302734 M 13.33333206176758 -3.814697265625e-06 C 20.6971321105957 -3.814697265625e-06 26.66666221618652 5.969539642333984 26.66666221618652 13.33332824707031 C 26.66666221618652 20.69712829589844 13.33333206176758 40 13.33333206176758 40 C 13.33333206176758 40 1.9073486328125e-06 20.69712829589844 1.9073486328125e-06 13.33332824707031 C 1.9073486328125e-06 5.969539642333984 5.969532012939453 -3.814697265625e-06 13.33333206176758 -3.814697265625e-06 Z"
        fill="#70a326"/>
      <path

        d="M9.194,12.292,12.984,8.5a1.192,1.192,0,0,0,0-1.685l-.842-.842a1.192,1.192,0,0,0-1.685,0L6.667,9.764,2.876,5.974a1.192,1.192,0,0,0-1.685,0l-.842.842a1.192,1.192,0,0,0,0,1.685l3.791,3.791L.349,16.082a1.192,1.192,0,0,0,0,1.685l.842.842a1.192,1.192,0,0,0,1.685,0l3.791-3.791,3.791,3.791a1.192,1.192,0,0,0,1.685,0l.842-.842a1.192,1.192,0,0,0,0-1.685Z"
        fill="#70a326"
        transform="translate(6.5 3)" />
    </g>
    <!-- text -->
    <text fill="#1a1a1a" font-family="sans-serif" font-size="16" x="35" y="25">Afgerond zonder aanpassing</text>
  </g>
</svg>
